HIERARCHY
ROOT hip
{
  OFFSET 0 0 0
  CHANNELS 6 Xposition Yposition Zposition Zrotation Yrotation Xrotation
  JOINT abdomen
  {
    OFFSET 0 20.6881 -0.73152
    CHANNELS 3 Zrotation Xrotation Yrotation
    JOINT chest
    {
      OFFSET 0 11.7043 -0.48768
      CHANNELS 3 Zrotation Xrotation Yrotation
      JOINT neck
      {
        OFFSET 0 22.1894 -2.19456
        CHANNELS 3 Zrotation Xrotation Yrotation
        JOINT head
        {
          OFFSET -0.24384 7.07133 1.2192
          CHANNELS 3 Zrotation Xrotation Yrotation
          JOINT leftEye
          {
            OFFSET 4.14528 8.04674 8.04672
            CHANNELS 3 Zrotation Xrotation Yrotation
            End Site
            {
              OFFSET 1 0 0
            }
          }
          JOINT rightEye
          {
            OFFSET -3.6576 8.04674 8.04672
            CHANNELS 3 Zrotation Xrotation Yrotation
            End Site
            {
              OFFSET 1 0 0
            }
          }
        }
      }
      JOINT rCollar
      {
        OFFSET -2.68224 19.2634 -4.8768
        CHANNELS 3 Zrotation Xrotation Yrotation
        JOINT rShldr
        {
          OFFSET -8.77824 -1.95073 1.46304
          CHANNELS 3 Zrotation Xrotation Yrotation
          JOINT rForeArm
          {
            OFFSET -28.1742 -1.7115 0.48768
            CHANNELS 3 Zrotation Xrotation Yrotation
            JOINT rHand
            {
              OFFSET -22.5879 0.773209 7.07136
              CHANNELS 3 Zrotation Xrotation Yrotation
              JOINT rThumb1
              {
                OFFSET -1.2192 -0.487915 3.41376
                CHANNELS 3 Zrotation Xrotation Yrotation
                JOINT rThumb2
                {
                  OFFSET -3.37035 -0.52449 3.41376
                  CHANNELS 3 Zrotation Xrotation Yrotation
                  End Site
                  {
                    OFFSET -1.78271 -1.18214 1.43049
                  }
                }
              }
              JOINT rIndex1
              {
                OFFSET -7.75947 0.938293 5.60832
                CHANNELS 3 Zrotation Xrotation Yrotation
                JOINT rIndex2
                {
                  OFFSET -2.54057 -0.884171 1.56538
                  CHANNELS 3 Zrotation Xrotation Yrotation
                  End Site
                  {
                    OFFSET -1.62519 -0.234802 1.16502
                  }
                }
              }
              JOINT rMid1
              {
                OFFSET -8.24714 1.18213 3.41376
                CHANNELS 3 Zrotation Xrotation Yrotation
                JOINT rMid2
                {
                  OFFSET -3.10165 -0.590103 1.0647
                  CHANNELS 3 Zrotation Xrotation Yrotation
                  End Site
                  {
                    OFFSET -2.48547 -0.328903 0.83742
                  }
                }
              }
              JOINT rRing1
              {
                OFFSET -8.82822 0.546677 1.51678
                CHANNELS 3 Zrotation Xrotation Yrotation
                JOINT rRing2
                {
                  OFFSET -2.60934 -0.819778 -0.0198488
                  CHANNELS 3 Zrotation Xrotation Yrotation
                  End Site
                  {
                    OFFSET -2.33842 -0.294052 0.168128
                  }
                }
              }
              JOINT rPinky1
              {
                OFFSET -8.27202 -0.0477905 -0.4584
                CHANNELS 3 Zrotation Xrotation Yrotation
                JOINT rPinky2
                {
                  OFFSET -1.82734 -0.647385 -0.700984
                  CHANNELS 3 Zrotation Xrotation Yrotation
                  End Site
                  {
                    OFFSET -1.69225 -0.51767 -0.607171
                  }
                }
              }
            }
          }
        }
      }
      JOINT lCollar
      {
        OFFSET 2.68224 19.2634 -4.8768
        CHANNELS 3 Zrotation Xrotation Yrotation
        JOINT lShldr
        {
          OFFSET 8.77824 -1.95073 1.46304
          CHANNELS 3 Zrotation Xrotation Yrotation
          JOINT lForeArm
          {
            OFFSET 28.1742 -1.7115 0.48768
            CHANNELS 3 Zrotation Xrotation Yrotation
            JOINT lHand
            {
              OFFSET 22.5879 0.773209 7.07136
              CHANNELS 3 Zrotation Xrotation Yrotation
              JOINT lThumb1
              {
                OFFSET 1.2192 -0.487915 3.41376
                CHANNELS 3 Zrotation Xrotation Yrotation
                JOINT lThumb2
                {
                  OFFSET 3.37035 -0.52449 3.41376
                  CHANNELS 3 Zrotation Xrotation Yrotation
                  End Site
                  {
                    OFFSET 1.78271 -1.18214 1.43049
                  }
                }
              }
              JOINT lIndex1
              {
                OFFSET 7.75947 0.938293 5.60832
                CHANNELS 3 Zrotation Xrotation Yrotation
                JOINT lIndex2
                {
                  OFFSET 2.54057 -0.884171 1.56538
                  CHANNELS 3 Zrotation Xrotation Yrotation
                  End Site
                  {
                    OFFSET 1.62519 -0.234802 1.16502
                  }
                }
              }
              JOINT lMid1
              {
                OFFSET 8.24714 1.18213 3.41376
                CHANNELS 3 Zrotation Xrotation Yrotation
                JOINT lMid2
                {
                  OFFSET 3.10165 -0.590103 1.0647
                  CHANNELS 3 Zrotation Xrotation Yrotation
                  End Site
                  {
                    OFFSET 2.48547 -0.328903 0.83742
                  }
                }
              }
              JOINT lRing1
              {
                OFFSET 8.82822 0.546677 1.51678
                CHANNELS 3 Zrotation Xrotation Yrotation
                JOINT lRing2
                {
                  OFFSET 2.60934 -0.819778 -0.0198488
                  CHANNELS 3 Zrotation Xrotation Yrotation
                  End Site
                  {
                    OFFSET 2.33842 -0.294052 0.168128
                  }
                }
              }
              JOINT lPinky1
              {
                OFFSET 8.27202 -0.0477905 -0.4584
                CHANNELS 3 Zrotation Xrotation Yrotation
                JOINT lPinky2
                {
                  OFFSET 1.82734 -0.647385 -0.700984
                  CHANNELS 3 Zrotation Xrotation Yrotation
                  End Site
                  {
                    OFFSET 1.69225 -0.51767 -0.607171
                  }
                }
              }
            }
          }
        }
      }
    }
  }
  JOINT rButtock
  {
    OFFSET -8.77824 4.35084 1.2192
    CHANNELS 3 Zrotation Xrotation Yrotation
    JOINT rThigh
    {
      OFFSET 0 -1.70687 -2.19456
      CHANNELS 3 Zrotation Xrotation Yrotation
      JOINT rShin
      {
        OFFSET 0 -36.8199 0.73152
        CHANNELS 3 Zrotation Xrotation Yrotation
        JOINT rFoot
        {
          OFFSET 0.73152 -45.1104 -5.12064
          CHANNELS 3 Zrotation Xrotation Yrotation
          End Site
          {
            OFFSET -1.1221 -3.69964 12.103
          }
        }
      }
    }
  }
  JOINT lButtock
  {
    OFFSET 8.77824 4.35084 1.2192
    CHANNELS 3 Zrotation Xrotation Yrotation
    JOINT lThigh
    {
      OFFSET 0 -1.70687 -2.19456
      CHANNELS 3 Zrotation Xrotation Yrotation
      JOINT lShin
      {
        OFFSET 0 -36.8199 0.73152
        CHANNELS 3 Zrotation Xrotation Yrotation
        JOINT lFoot
        {
          OFFSET -0.73152 -45.1104 -5.12064
          CHANNELS 3 Zrotation Xrotation Yrotation
          End Site
          {
            OFFSET 1.1221 -3.69964 12.103
          }
        }
      }
    }
  }
}
MOTION
Frames:	7
Frame Time:	0.00833333
-8.66244 85.1388 130.575 0.0 0.0 0.0 0.41059 -0.00336424 0.0117806 0.113459 -0.0053952 0.0196593 -1.07088e-14 -7.95139e-16 6.83322e-17 -3.2082e-14 3.18055e-15 1.53748e-16 -0.0 0.0 0.0 -0.0 0.0 0.0 -5.31888e-15 1.86361e-17 1.49089e-16 -1.10191e-13 1.73937e-16 9.93923e-16 -1.93214e-12 5.91583e-13 2.54444e-14 -2.21506e-11 -5.1361e-13 7.31528e-14 -5.22471e-11 1.70548e-13 2.25819e-13 -9.02375e-11 2.92611e-13 3.92003e-13 -5.22446e-11 1.72148e-13 2.16278e-13 7.73091 5.47488 0.417314 -5.22478e-11 1.70657e-13 2.29e-13 2.90554 0.965183 0.102902 -5.22425e-11 1.70657e-13 2.23434e-13 10.2786 0.731801 0.0259123 -5.22607e-11 1.74931e-13 2.25819e-13 2.22167 -0.733487 -0.20892 -5.41584e-15 1.86361e-17 -1.49089e-16 -1.14101e-13 3.72721e-16 -7.95139e-16 -1.94069e-12 -5.63555e-13 3.49861e-14 -2.21481e-11 6.53604e-13 6.67917e-14 -5.22509e-11 1.92427e-13 2.16278e-13 -9.0224e-11 3.30778e-13 3.86437e-13 -5.22557e-11 1.90833e-13 2.19458e-13 -7.73091 5.47488 -0.417314 -5.22499e-11 1.91827e-13 2.13097e-13 -2.90554 0.965183 -0.102902 -5.22579e-11 1.92324e-13 2.21049e-13 -10.2786 0.731801 -0.0259123 -5.2246e-11 1.95207e-13 2.19458e-13 -2.22167 -0.733487 0.20892 -2.03217e-16 0.0 -3.88251e-19 0.770608 -4.17183 -0.0656817 -0.00265489 2.00555 -0.0182705 -0.461833 2.16687 0.0961013 2.03217e-16 0.0 3.88251e-19 -0.143232 -2.55995 0.0260684 0.00716318 -0.91409 0.0621717 0.45377 3.47457 -0.121225
-8.54942 83.4693 125.326 177.255 -0.0614 -151.421 -1.27112 -8.42899 -0.76867 1.02673 3.75756 -0.32514 -0.215116 3.69752 -1.50127 1.83166 -2.47145 -2.33437 -0.0 0.0 0.0 -0.0 0.0 0.0 -1.80838e-14 5.505e-15 1.17174e-15 22.9091 0.790883 -1.63352 -3.75609 -1.6238 5.95349 0.0028445 1.18384 0.166249 4.09943e-11 5.02055e-11 5.13809e-11 7.09616e-11 8.69515e-11 8.83173e-11 4.09962e-11 5.02071e-11 5.13685e-11 7.73091 5.47488 0.417314 4.09931e-11 5.02053e-11 5.13822e-11 2.90554 0.965183 0.102902 4.09994e-11 5.02052e-11 5.13788e-11 10.2786 0.731801 0.0259123 4.09826e-11 5.02087e-11 5.13825e-11 2.22167 -0.733487 -0.20892 -1.81932e-14 5.50481e-15 8.40564e-16 -21.2369 3.67186 -0.550458 2.3267 -0.842065 -3.83423 -0.0229256 3.36254 -0.469646 3.06645e-11 -2.52779e-11 7.48482e-11 5.38148e-11 -4.37008e-11 1.28839e-10 3.06591e-11 -2.52802e-11 7.48532e-11 -7.73091 5.47488 -0.417314 3.06656e-11 -2.52787e-11 7.48469e-11 -2.90554 0.965183 -0.102902 3.06598e-11 -2.52791e-11 7.48522e-11 -10.2786 0.731801 -0.0259123 3.06687e-11 -2.52758e-11 7.48497e-11 -2.22167 -0.733487 0.20892 -2.03217e-16 0.0 -3.88251e-19 0.955494 -10.8229 2.0612 0.00140372 4.32177 0.0405643 -0.580132 -2.70017 -1.23225 2.03217e-16 0.0 3.88251e-19 -0.442536 -8.70313 -1.44102 0.00618189 0.837627 0.0317343 0.446618 1.65303 -0.360065
-8.38689 83.3623 125.245 178.009 -0.2713 -152.166 -3.30976 -17.3299 -1.65327 2.04163 7.73371 -0.694927 -0.233911 7.5825 -3.11159 3.54815 -5.04306 -4.82081 -0.0 0.0 0.0 -0.0 0.0 0.0 -3.17037e-14 1.49171e-14 3.07495e-15 47.1741 1.62719 -3.35589 -7.35914 -3.28002 12.2579 -0.00163363 2.44017 0.342921 1.45589e-10 1.09081e-10 1.05677e-10 2.51798e-10 1.88882e-10 1.81653e-10 1.4559e-10 1.09082e-10 1.05662e-10 7.73091 5.47488 0.417314 1.45588e-10 1.0908e-10 1.05676e-10 2.90554 0.965183 0.102902 1.45595e-10 1.0908e-10 1.05675e-10 10.2786 0.731801 0.0259123 1.45579e-10 1.09083e-10 1.0568e-10 2.22167 -0.733487 -0.20892 -3.18287e-14 1.49167e-14 2.70534e-15 -43.6139 7.53507 -1.13843 4.66104 -1.71814 -7.88517 0.013264 6.93255 -0.9738 1.16948e-10 -5.47315e-11 1.61883e-10 2.03827e-10 -9.46146e-11 2.78664e-10 1.16942e-10 -5.47344e-11 1.6189e-10 -7.73091 5.47488 -0.417314 1.16949e-10 -5.47325e-11 1.61884e-10 -2.90554 0.965183 -0.102902 1.16946e-10 -5.47337e-11 1.61886e-10 -10.2786 0.731801 -0.0259123 1.16952e-10 -5.473e-11 1.61882e-10 -2.22167 -0.733487 0.20892 -2.03217e-16 0.0 -3.88251e-19 1.71056 -17.8189 4.44811 0.000459005 6.77016 0.103264 -0.953263 -7.8386 -2.66306 2.03217e-16 0.0 3.88251e-19 -1.11434 -15.1847 -3.06497 0.007287 2.69139 -0.000463367 0.422328 -0.27259 -0.612413
-8.24008 83.2627 125.15 178.697 -0.6057 -152.937 -5.38463 -25.2606 -2.5485 2.9914 11.2819 -1.0326 -0.0553586 11.0618 -4.5797 4.88822 -7.36492 -7.05508 -0.0 0.0 0.0 -0.0 0.0 0.0 -4.36137e-14 1.64777e-14 3.21705e-15 68.8626 2.36493 -4.90428 -10.2713 -4.66142 17.9145 -0.0121101 3.55139 0.499601 2.27477e-10 1.50276e-10 1.53691e-10 3.9336e-10 2.60269e-10 2.64168e-10 2.27478e-10 1.50277e-10 1.53673e-10 7.73091 5.47488 0.417314 2.27475e-10 1.50275e-10 1.53688e-10 2.90554 0.965183 0.102902 2.27483e-10 1.50274e-10 1.53689e-10 10.2786 0.731801 0.0259123 2.27469e-10 1.50276e-10 1.53696e-10 2.22167 -0.733487 -0.20892 -4.3748e-14 1.64772e-14 2.81987e-15 -63.4958 11.0115 -1.6789 6.64424 -2.48099 -11.5124 0.0987881 10.0849 -1.42859 1.96495e-10 -7.62187e-11 2.24112e-10 3.41893e-10 -1.31764e-10 3.85745e-10 1.96489e-10 -7.62222e-11 2.24121e-10 -7.73091 5.47488 -0.417314 1.96497e-10 -7.62198e-11 2.24115e-10 -2.90554 0.965183 -0.102902 1.96495e-10 -7.62218e-11 2.24114e-10 -10.2786 0.731801 -0.0259123 1.96498e-10 -7.62178e-11 2.2411e-10 -2.22167 -0.733487 0.20892 -2.03217e-16 0.0 -3.88251e-19 2.92788 -23.9952 6.79415 -0.00490389 8.95419 0.159813 -1.50578 -12.4071 -3.97776 2.03217e-16 0.0 3.88251e-19 -2.04264 -20.935 -4.6317 0.0098064 4.34106 -0.0292187 0.386739 -1.98976 -0.838246
-7.96466 83.0651 124.945 180.112 -1.1981 -154.671 -6.99865 -30.7844 -3.26285 3.6799 13.7615 -1.27289 0.199717 13.556 -5.62129 5.70708 -9.10863 -8.61185 -0.0 0.0 0.0 -0.0 0.0 0.0 -5.12489e-14 -1.59028e-15 -1.04362e-15 84.0146 2.86352 -6.01414 -12.1501 -5.55443 21.9007 -0.0227306 4.29996 0.605469 2.52597e-10 1.47269e-10 1.85999e-10 4.36735e-10 2.553e-10 3.19631e-10 2.52598e-10 1.4727e-10 1.8598e-10 7.73091 5.47488 0.417314 2.52595e-10 1.47269e-10 1.85996e-10 2.90554 0.965183 0.102902 2.52604e-10 1.47268e-10 1.85998e-10 10.2786 0.731801 0.0259123 2.52591e-10 1.47269e-10 1.86005e-10 2.22167 -0.733487 -0.20892 -5.13771e-14 -1.59067e-15 -1.44119e-15 -77.2904 13.5247 -2.07526 7.98391 -3.00332 -14.0712 0.185966 12.1957 -1.74062 2.59201e-10 -7.779e-11 2.24328e-10 4.50094e-10 -1.34502e-10 3.85967e-10 2.59195e-10 -7.77936e-11 2.24337e-10 -7.73091 5.47488 -0.417314 2.59202e-10 -7.77912e-11 2.24331e-10 -2.90554 0.965183 -0.102902 2.59202e-10 -7.77936e-11 2.24329e-10 -10.2786 0.731801 -0.0259123 2.59203e-10 -7.77892e-11 2.24325e-10 -2.22167 -0.733487 0.20892 -2.03217e-16 0.0 -3.88251e-19 4.1295 -28.2421 8.60699 -0.0110709 10.4774 0.199582 -2.01219 -15.5782 -4.91029 2.03217e-16 0.0 3.88251e-19 -2.8852 -24.9075 -5.82097 0.011901 5.48052 -0.0492278 0.355026 -3.1861 -0.996726
-7.96593 83.0528 124.848 180.178 -1.0967 -154.799 -7.66052 -32.9514 -3.54942 3.95524 14.746 -1.36352 0.37052 14.7197 -6.01144 5.99253 -10.1201 -9.17949 -0.0 0.0 0.0 -0.0 0.0 0.0 -5.42451e-14 -6.08172e-14 -1.46165e-14 89.9776 3.02703 -6.51547 -12.8763 -5.9014 23.5188 -0.0269324 4.5352 0.638815 1.76556e-10 8.41755e-11 1.57356e-10 3.04931e-10 1.46689e-10 2.69721e-10 1.76558e-10 8.41756e-11 1.57339e-10 7.73091 5.47488 0.417314 1.76553e-10 8.41757e-11 1.57354e-10 2.90554 0.965183 0.102902 1.76563e-10 8.41748e-11 1.57357e-10 10.2786 0.731801 0.0259123 1.7655e-10 8.4175e-11 1.57365e-10 2.22167 -0.733487 -0.20892 -5.43365e-14 -6.0817e-14 -1.49683e-14 -82.6276 14.7075 -2.24954 8.52357 -3.21792 -15.1262 0.219963 12.8405 -1.83775 2.82546e-10 -3.13715e-11 1.56115e-10 4.8917e-10 -5.41302e-11 2.68761e-10 2.82541e-10 -3.13744e-11 1.56124e-10 -7.73091 5.47488 -0.417314 2.82547e-10 -3.13724e-11 1.56117e-10 -2.90554 0.965183 -0.102902 2.82546e-10 -3.13746e-11 1.56116e-10 -10.2786 0.731801 -0.0259123 2.82549e-10 -3.13698e-11 1.56111e-10 -2.22167 -0.733487 0.20892 -2.03217e-16 0.0 -3.88251e-19 4.71061 -29.8724 9.36233 -0.0136881 11.0768 0.21493 -2.22061 -16.8165 -5.22968 2.03217e-16 0.0 3.88251e-19 -3.23917 -26.4216 -6.31556 0.0116081 5.90194 -0.0568065 0.34347 -3.65626 -1.05622
-7.9694 83.0434 124.837 180.179 -1.0879 -154.763 -7.55903 -32.7256 -3.47457 3.9247 14.6629 -1.34363 0.432886 14.9378 -5.92044 5.94776 -10.6167 -9.02985 -0.0 0.0 0.0 -0.0 0.0 0.0 -5.38636e-14 -1.48792e-13 -3.4691e-14 89.3669 2.95299 -6.58106 -12.8457 -5.89863 23.4372 -0.0252158 4.40407 0.620255 2.92893e-11 -2.19234e-11 8.70335e-11 4.97928e-11 -3.61068e-11 1.47761e-10 2.92934e-11 -2.19249e-11 8.70184e-11 7.73091 5.47488 0.417314 2.92863e-11 -2.19215e-11 8.70331e-11 2.90554 0.965183 0.102902 2.92953e-11 -2.19231e-11 8.70364e-11 10.2786 0.731801 0.0259123 2.92838e-11 -2.1924e-11 8.70436e-11 2.22167 -0.733487 -0.20892 -5.38968e-14 -1.48791e-13 -3.49644e-14 -81.9422 14.9401 -2.25928 8.51596 -3.22164 -15.1054 0.204702 12.4391 -1.77807 2.78528e-10 4.8368e-11 3.81494e-11 4.80173e-10 8.39434e-11 6.61469e-11 2.78525e-10 4.83661e-11 3.81573e-11 -7.73091 5.47488 -0.417314 2.78529e-10 4.83676e-11 3.81498e-11 -2.90554 0.965183 -0.102902 2.78526e-10 4.83661e-11 3.81496e-11 -10.2786 0.731801 -0.0259123 2.78532e-10 4.83713e-11 3.81458e-11 -2.22167 -0.733487 0.20892 -2.03217e-16 0.0 -3.88251e-19 4.69046 -29.6614 9.26726 -0.0126847 11.0162 0.212573 -2.16197 -16.6798 -5.09015 2.03217e-16 0.0 3.88251e-19 -3.15076 -26.1912 -6.26208 0.00920983 5.81065 -0.0554625 0.349632 -3.60765 -1.0448
